<?xml version="1.0" encoding="utf-8"?>
<!-- Generator: Adobe Illustrator 20.1.0, SVG Export Plug-In . SVG Version: 6.00 Build 0)  -->
<svg version="1.1" id="Layer_2" xmlns="http://www.w3.org/2000/svg" xmlns:xlink="http://www.w3.org/1999/xlink" x="0px" y="0px"
	 viewBox="0 0 70.5 70.5" style="enable-background:new 0 0 70.5 70.5;" xml:space="preserve">
<style type="text/css">
	.st0{fill:#FFFFFF;}
</style>
<path class="st0" d="M0,35.2C0,15.8,15.8,0,35.2,0s35.2,15.8,35.2,35.2S54.7,70.5,35.2,70.5S0,54.7,0,35.2z M51.2,20.9L35.4,7.1
	l-1.6,6.3c-11.4,0.8-20.4,10.2-20.4,21.8c0,2.4,0.4,4.7,1.1,7l6.6-2.2c-0.5-1.5-0.8-3.1-0.8-4.8c0-7,4.9-12.9,11.5-14.5l-1.4,5.6
	L51.2,20.9z M19.3,49.7l16,13.7l1.6-6.3c11.4-0.8,20.3-10.4,20.2-21.9c0-2.4-0.4-4.7-1.2-7l-6.6,2.3c0.5,1.5,0.8,3.1,0.8,4.7
	c0,7-4.9,13-11.4,14.5l1.4-5.6L19.3,49.7z"/>
</svg>
